<svg xmlns="http://www.w3.org/2000/svg" x="0px" y="0px"
width="100" height="100"
viewBox="0 0 172 172"
style=" fill:#000000;"><defs><linearGradient x1="86" y1="2.6875" x2="86" y2="162.95455" gradientUnits="userSpaceOnUse" id="color-1_rweVC89exatd_gr1"><stop offset="0" stop-color="#1a6dff"></stop><stop offset="1" stop-color="#c822ff"></stop></linearGradient><linearGradient x1="86" y1="2.6875" x2="86" y2="162.95455" gradientUnits="userSpaceOnUse" id="color-2_rweVC89exatd_gr2"><stop offset="0" stop-color="#1a6dff"></stop><stop offset="1" stop-color="#c822ff"></stop></linearGradient><linearGradient x1="86" y1="2.6875" x2="86" y2="162.95455" gradientUnits="userSpaceOnUse" id="color-3_rweVC89exatd_gr3"><stop offset="0" stop-color="#1a6dff"></stop><stop offset="1" stop-color="#c822ff"></stop></linearGradient><linearGradient x1="86" y1="2.6875" x2="86" y2="162.95455" gradientUnits="userSpaceOnUse" id="color-4_rweVC89exatd_gr4"><stop offset="0" stop-color="#1a6dff"></stop><stop offset="1" stop-color="#c822ff"></stop></linearGradient><linearGradient x1="2799.95777" y1="181.29539" x2="2799.95777" y2="6520.8187" gradientUnits="userSpaceOnUse" id="color-5_rweVC89exatd_gr5"><stop offset="0" stop-color="#1a6dff"></stop><stop offset="1" stop-color="#c822ff"></stop></linearGradient><linearGradient x1="2118.7437" y1="181.29539" x2="2118.7437" y2="6520.8187" gradientUnits="userSpaceOnUse" id="color-6_rweVC89exatd_gr6"><stop offset="0" stop-color="#1a6dff"></stop><stop offset="1" stop-color="#c822ff"></stop></linearGradient><linearGradient x1="4843.59995" y1="181.29539" x2="4843.59995" y2="6520.8187" gradientUnits="userSpaceOnUse" id="color-7_rweVC89exatd_gr7"><stop offset="0" stop-color="#1a6dff"></stop><stop offset="1" stop-color="#c822ff"></stop></linearGradient><linearGradient x1="4162.38589" y1="181.29539" x2="4162.38589" y2="6520.8187" gradientUnits="userSpaceOnUse" id="color-8_rweVC89exatd_gr8"><stop offset="0" stop-color="#1a6dff"></stop><stop offset="1" stop-color="#c822ff"></stop></linearGradient></defs><g fill="none" fill-rule="nonzero" stroke="none" stroke-width="1" stroke-linecap="butt" stroke-linejoin="miter" stroke-miterlimit="10" stroke-dasharray="" stroke-dashoffset="0" font-family="none" font-weight="none" font-size="none" text-anchor="none" style="mix-blend-mode: normal"><path d="M0,172v-172h172v172z" fill="none"></path><g><g><path d="M166.625,17.81745c0.02334,-0.61428 -0.20258,-1.21192 -0.62644,-1.65716c-0.42385,-0.44524 -1.00966,-0.70027 -1.62435,-0.70717h-156.74844c-0.61472,0.00681 -1.20058,0.26181 -1.62445,0.70707c-0.42387,0.44526 -0.64976,1.04295 -0.62633,1.65726v112.19305c-0.02293,0.61271 0.2036,1.20853 0.62782,1.65123c0.42421,0.4427 1.00983,0.69443 1.62296,0.69764h54.93922l-5.45898,19.48438h-9.58094c-1.29873,0 -2.35156,1.05283 -2.35156,2.35156c0,1.29873 1.05283,2.35156 2.35156,2.35156h76.94984c1.29873,0 2.35156,-1.05283 2.35156,-2.35156c0,-1.29873 -1.05283,-2.35156 -2.35156,-2.35156h-9.58094l-5.45898,-19.48437h54.93922c0.6131,-0.0033 1.19866,-0.25507 1.62286,-0.69775c0.42419,-0.44268 0.65076,-1.03844 0.62792,-1.65113v-21.37066v0v-4.70312v0zM10.07813,20.15625h151.84375v83.64844h-151.84375zM110.00945,151.84375h-48.01891l5.45898,-19.48437h37.10094zM161.92188,127.65625h-151.84375v-19.14844h151.84375z" fill="url(#color-1_rweVC89exatd_gr1)"></path><path d="M74.4928,62.48438h23.01441c1.29735,-0.04631 2.31175,-1.13515 2.26623,-2.43252v-19.06277c0.01938,-0.61508 -0.21021,-1.21196 -0.6368,-1.65549c-0.42658,-0.44353 -1.01407,-0.69619 -1.62944,-0.70078h-1.76502v-4.43438c0,-5.47578 -4.31243,-9.92998 -9.74219,-9.92998c-5.42976,0 -9.74219,4.4542 -9.74219,9.92998v4.43438h-1.76502c-0.61536,0.00458 -1.20285,0.25724 -1.62944,0.70078c-0.42658,0.44353 -0.65618,1.04041 -0.6368,1.65549v19.06277c-0.04552,1.29738 0.96889,2.38622 2.26623,2.43252zM95.07031,57.78125h-18.14062v-14.44531h18.14063zM80.96094,34.19844c0,-2.88201 2.20274,-5.22685 5.03906,-5.22685c2.83632,0 5.03906,2.34484 5.03906,5.22685v4.43438h-10.07812z" fill="url(#color-2_rweVC89exatd_gr2)"></path><path d="M136.39063,68.86719c0,-1.29873 -1.05283,-2.35156 -2.35156,-2.35156h-96.07812c-1.29873,0 -2.35156,1.05283 -2.35156,2.35156v25.86719c0,1.29873 1.05283,2.35156 2.35156,2.35156h96.07813c1.29873,0 2.35156,-1.05283 2.35156,-2.35156zM131.6875,92.38281h-91.375v-21.16406h91.375z" fill="url(#color-3_rweVC89exatd_gr3)"></path><path d="M86,88.27698c3.66947,0 6.64417,-2.9747 6.64417,-6.64417c0,-3.66947 -2.9747,-6.64417 -6.64417,-6.64417c-3.66947,0 -6.64417,2.9747 -6.64417,6.64417c0.00407,3.66779 2.97639,6.6401 6.64417,6.64417zM86,79.69177c1.07201,0 1.94105,0.86904 1.94105,1.94105c0,1.07201 -0.86904,1.94105 -1.94105,1.94105c-1.07201,0 -1.94105,-0.86904 -1.94105,-1.94105c0.0013,-1.07147 0.86957,-1.93975 1.94105,-1.94105z" fill="url(#color-4_rweVC89exatd_gr4)"></path><path d="M69.20313,88.27698c3.66947,0 6.64417,-2.9747 6.64417,-6.64417c0,-3.66947 -2.9747,-6.64417 -6.64417,-6.64417c-3.66947,0 -6.64417,2.9747 -6.64417,6.64417c0.00407,3.66779 2.97639,6.6401 6.64417,6.64417zM69.20313,79.69177c1.07201,0 1.94105,0.86904 1.94105,1.94105c0,1.07201 -0.86904,1.94105 -1.94105,1.94105c-1.07201,0 -1.94105,-0.86904 -1.94105,-1.94105c0.0013,-1.07147 0.86957,-1.93975 1.94105,-1.94105z" fill="url(#color-5_rweVC89exatd_gr5)"></path><path d="M52.40625,88.27698c3.66947,0 6.64417,-2.9747 6.64417,-6.64417c0,-3.66947 -2.9747,-6.64417 -6.64417,-6.64417c-3.66947,0 -6.64417,2.9747 -6.64417,6.64417c0.00407,3.66779 2.97639,6.6401 6.64417,6.64417zM52.40625,79.69177c1.07201,0 1.94105,0.86904 1.94105,1.94105c0,1.07201 -0.86904,1.94105 -1.94105,1.94105c-1.07201,0 -1.94105,-0.86904 -1.94105,-1.94105c0.0013,-1.07147 0.86957,-1.93975 1.94105,-1.94105z" fill="url(#color-6_rweVC89exatd_gr6)"></path><path d="M119.59375,88.27698c3.66947,0 6.64417,-2.9747 6.64417,-6.64417c0,-3.66947 -2.9747,-6.64417 -6.64417,-6.64417c-3.66947,0 -6.64417,2.9747 -6.64417,6.64417c0.00407,3.66779 2.97639,6.6401 6.64417,6.64417zM119.59375,79.69177c1.07201,0 1.94105,0.86904 1.94105,1.94105c0,1.07201 -0.86904,1.94105 -1.94105,1.94105c-1.07201,0 -1.94105,-0.86904 -1.94105,-1.94105c0.0013,-1.07147 0.86957,-1.93975 1.94105,-1.94105z" fill="url(#color-7_rweVC89exatd_gr7)"></path><path d="M102.79688,88.27698c3.66947,0 6.64417,-2.9747 6.64417,-6.64417c0,-3.66947 -2.9747,-6.64417 -6.64417,-6.64417c-3.66947,0 -6.64417,2.9747 -6.64417,6.64417c0.00407,3.66779 2.97639,6.6401 6.64417,6.64417zM102.79688,79.69177c1.07201,0 1.94105,0.86904 1.94105,1.94105c0,1.07201 -0.86904,1.94105 -1.94105,1.94105c-1.07201,0 -1.94105,-0.86904 -1.94105,-1.94105c0.0013,-1.07147 0.86957,-1.93975 1.94105,-1.94105z" fill="url(#color-8_rweVC89exatd_gr8)"></path></g></g></g></svg>