<svg xmlns="http://www.w3.org/2000/svg" x="0px" y="0px"
width="100" height="100"
viewBox="0 0 172 172"
style=" fill:#000000;"><defs><linearGradient x1="85.98986" y1="21.49454" x2="85.9924" y2="150.50293" gradientUnits="userSpaceOnUse" id="color-1_K0l4dwcsMaJa_gr1"><stop offset="0" stop-color="#a8aab5"></stop><stop offset="1" stop-color="#626d91"></stop></linearGradient><linearGradient x1="85.98986" y1="21.49454" x2="85.9924" y2="150.50293" gradientUnits="userSpaceOnUse" id="color-2_K0l4dwcsMaJa_gr2"><stop offset="0" stop-color="#a8aab5"></stop><stop offset="1" stop-color="#626d91"></stop></linearGradient></defs><g transform="translate(0.516,0.516) scale(0.994,0.994)"><g fill="none" fill-rule="nonzero" stroke="none" stroke-width="1" stroke-linecap="butt" stroke-linejoin="none" stroke-miterlimit="10" stroke-dasharray="" stroke-dashoffset="0" font-family="none" font-weight="none" font-size="none" text-anchor="none" style="mix-blend-mode: normal"><g fill="url(#color-1_K0l4dwcsMaJa_gr1)" stroke="#cccccc" stroke-linejoin="round"><path d="M103.91667,107.5v39.41667c0,1.97902 -1.60431,3.58333 -3.58333,3.58333h-28.66667c-1.97902,0 -3.58333,-1.60431 -3.58333,-3.58333v-39.41667c0,-1.97902 -1.60431,-3.58333 -3.58333,-3.58333h-39.41667c-1.97902,0 -3.58333,-1.60431 -3.58333,-3.58333v-28.66667c0,-1.97902 1.60431,-3.58333 3.58333,-3.58333h39.41667c1.97902,0 3.58333,-1.60431 3.58333,-3.58333v-39.41667c0,-1.97902 1.60431,-3.58333 3.58333,-3.58333h28.66667c1.97902,0 3.58333,1.60431 3.58333,3.58333v39.41667c0,1.97902 1.60431,3.58333 3.58333,3.58333h39.41667c1.97902,0 3.58333,1.60431 3.58333,3.58333v28.66667c0,1.97902 -1.60431,3.58333 -3.58333,3.58333h-39.41667c-1.97902,0 -3.58333,1.60431 -3.58333,3.58333z"></path></g><path d="M0,172v-172h172v172z" fill="none" stroke="none" stroke-linejoin="miter"></path><g fill="url(#color-2_K0l4dwcsMaJa_gr2)" stroke="none" stroke-linejoin="miter"><path d="M107.5,103.91667h39.41667c1.97902,0 3.58333,-1.60431 3.58333,-3.58333v-28.66667c0,-1.97902 -1.60431,-3.58333 -3.58333,-3.58333h-39.41667c-1.97902,0 -3.58333,-1.60431 -3.58333,-3.58333v-39.41667c0,-1.97902 -1.60431,-3.58333 -3.58333,-3.58333h-28.66667c-1.97902,0 -3.58333,1.60431 -3.58333,3.58333v39.41667c0,1.97902 -1.60431,3.58333 -3.58333,3.58333h-39.41667c-1.97902,0 -3.58333,1.60431 -3.58333,3.58333v28.66667c0,1.97902 1.60431,3.58333 3.58333,3.58333h39.41667c1.97902,0 3.58333,1.60431 3.58333,3.58333v39.41667c0,1.97902 1.60431,3.58333 3.58333,3.58333h28.66667c1.97902,0 3.58333,-1.60431 3.58333,-3.58333v-39.41667c0,-1.97902 1.60431,-3.58333 3.58333,-3.58333z"></path></g><path d="" fill="none" stroke="none" stroke-linejoin="miter"></path><path d="" fill="none" stroke="none" stroke-linejoin="miter"></path></g></g></svg>